<svg xmlns="http://www.w3.org/2000/svg" id="Layer_1" x="0" y="0" version="1.1" viewBox="0 0 2400 1800" xml:space="preserve">
  <defs/>
  <style>
    .st2 { fill: #242424; }
    .st3 { fill: #222; }
    .st4 { fill: #232323; }
    .st5 { fill: #212121; }
    .st6 { fill: #262626; }
    .st7 { fill: #1e1e1e; }
    .st9 { fill: #1c1c1c; }
    .st10 { fill: #1f1f1f; }
    .st11 { fill: #1d1d1d; }
    .st12 { fill: #252525; }
    .st14 { fill: #282828; }
  </style>
  <path d="M0 0h2400v1800H0z" class="st2"/>
  <g id="Lager_1">
    <path d="M239.9 1l300.4 394.3L214.4 352z" class="st3"/>
    <path d="M557 722.3L0 713v-91.6L214.4 352z" class="st4"/>
    <path d="M0 83.1L214.4 352 0 621.4z" class="st3"/>
    <path d="M239.9 1l-25.5 351L0 83.1V0z" class="st5"/>
    <path d="M540.3 395.3l16.7 327L214.4 352z" class="st6"/>
    <path d="M540.3 395.3L1001 153 294.3 0l-54.4 1zM203 1063l354-340.7L0 713v103z" class="st3"/>
    <path d="M0 989l203 74L0 816z" class="st6"/>
    <path d="M203 1063L0 1338.1V989z" class="st5"/>
    <path d="M557 722.3l-82.9 605.3L203 1063z" class="st3"/>
    <path d="M203 1063l271.1 264.6L0 1503.1v-165z" class="st7"/>
    <path fill="#191919" d="M474.1 1327.6l-243 472.4H109.6L0 1698.1v-195z"/>
    <path d="M0 1698.1L109.6 1800H0z" class="st7"/>
    <path d="M474.1 1327.6L841.6 1800H231.1z" class="st9"/>
    <path d="M474.1 1327.6l549 18L557 722.3z" class="st10"/>
    <path d="M1023.1 1345.6l4.5 454.4h-186l-367.5-472.4z" class="st11"/>
    <path d="M1001 153L1264.6 1 294.3 0zM1001 153l280.1 444.1L557 722.3l-16.7-327z" class="st12"/>
    <path fill="#272727" d="M1281.1 597.1L1324.6 0l-60 1L1001 153z"/>
    <path d="M1281.1 597.1l-258 748.5L557 722.3z" class="st2"/>
    <path d="M1281.1 597.1l577.5-457.5L1486.6 0h-162z" class="st12"/>
    <path d="M1858.6 139.6l541.4-108v207z" class="st14"/>
    <path d="M1858.6 139.6l541.4-108V0h-913.4z" class="st14"/>
    <path d="M1858.6 139.6l153 646.5-730.5-189z" class="st2"/>
    <path d="M2011.6 786.1L2400 437.7V238.6l-541.4-99z" class="st6"/>
    <path d="M2011.6 786.1l-112.5 447-618-636z" class="st2"/>
    <path d="M1899.1 1233.1l-876 112.5 258-748.5z" class="st3"/>
    <path fill="#1b1b1b" d="M1023.1 1345.6l729 369-184.5 85.4h-540z"/>
    <path d="M1752.1 1714.6l147-481.5-876 112.5z" class="st11"/>
    <path d="M1752.1 1714.6l-7.5 85.4h-177z" class="st9"/>
    <path fill="#161616" d="M1752.1 1714.6l216 85.4h-223.5z"/>
    <path d="M1752.1 1714.6l647.9-322.5v-102l-500.9-57z" class="st10"/>
    <path d="M1752.1 1714.6l647.9-322.5V1800h-431.9z" class="st4"/>
    <path d="M2011.6 786.1l388.4 375v129l-500.9-57z" class="st3"/>
    <path d="M2011.6 786.1L2400 437.7v723.4z" class="st2"/>
  </g>
</svg>